<?xml version="1.0" standalone="no"?>
<!DOCTYPE svg PUBLIC "-//W3C//DTD SVG 20010904//EN"
 "http://www.w3.org/TR/2001/REC-SVG-20010904/DTD/svg10.dtd">
<svg version="1.0" xmlns="http://www.w3.org/2000/svg"
 width="700.000000pt" height="700.000000pt" viewBox="0 0 700.000000 700.000000"
 preserveAspectRatio="xMidYMid meet">
<metadata>
Created by potrace 1.14, written by Peter Selinger 2001-2017
</metadata>
<g transform="translate(0.000000,700.000000) scale(0.100000,-0.100000)"
fill="#000000" stroke="none">
<path d="M6295 5735 c-507 -69 -948 -287 -1305 -645 -429 -429 -660 -984 -660
-1590 0 -606 231 -1161 660 -1590 429 -430 984 -660 1590 -660 138 0 389 22
411 36 5 3 9 154 9 336 l0 331 -32 -7 c-297 -60 -526 -59 -776 4 -761 192
-1274 910 -1204 1684 66 729 598 1311 1317 1442 148 27 433 25 575 -4 58 -12
108 -22 113 -22 4 0 6 150 5 333 l-3 332 -70 13 c-106 19 -508 24 -630 7z"/>
<path d="M2580 4519 c-515 -62 -887 -141 -1095 -231 -203 -88 -375 -267 -566
-589 -128 -216 -200 -394 -242 -595 -37 -178 -138 -432 -353 -889 l-108 -230
-1 -80 c0 -68 4 -89 28 -137 80 -164 279 -233 440 -154 83 40 121 90 212 280
204 424 352 788 397 976 61 258 109 374 229 560 104 161 165 230 234 261 142
64 577 147 970 185 138 13 233 70 290 175 41 75 47 188 15 273 -27 71 -92 141
-165 176 -57 27 -160 35 -285 19z"/>
<path d="M3805 2980 c-33 -5 -550 -68 -1150 -140 -1191 -144 -1146 -136 -1232
-213 -21 -20 -52 -60 -69 -89 -26 -48 -29 -62 -29 -148 0 -83 3 -101 27 -145
51 -98 144 -165 248 -180 26 -3 118 3 215 14 94 12 283 35 420 51 347 42 565
69 1205 146 384 46 571 72 607 86 168 62 255 269 181 430 -57 124 -154 190
-287 194 -42 1 -103 -1 -136 -6z"/>
</g>
</svg>
